<mxfile host="app.diagrams.net" modified="2024-01-24T08:27:02.487Z" agent="Mozilla/5.0 (Windows NT 10.0; Win64; x64) AppleWebKit/537.36 (KHTML, like Gecko) Chrome/119.0.0.0 Safari/537.36" version="22.1.18" etag="2WHl3pUrmfUr3gNCZZT1" type="github">
  <diagram name="Side-1" id="2e0HWXioVtxs-1YrDjxj">
    <mxGraphModel>
      <root>
        <mxCell id="0" />
        <mxCell id="1" parent="0" />
      </root>
    </mxGraphModel>
  </diagram>
</mxfile>
